<?xml version="1.0" standalone="no"?>
<!DOCTYPE svg PUBLIC "-//W3C//DTD SVG 1.1//EN" "http://www.w3.org/Graphics/SVG/1.1/DTD/svg11.dtd" >
<!--
2013-9-30: Created.
-->
<svg>
<metadata>
Created by iconfont
</metadata>
<defs>

<font id="iconfont" horiz-adv-x="1024" >
  <font-face
    font-family="iconfont"
    font-weight="500"
    font-stretch="normal"
    units-per-em="1024"
    ascent="896"
    descent="-128"
  />
    <missing-glyph />
    
    <glyph glyph-name="11" unicode="&#58906;" d="M954.762 589.779c-3.492 3.492-8.062 5.238-12.659 5.238L82.868 595.017c-4.569 0-9.138-1.746-12.63-5.238S65 581.718 65 577.148l0-554.283c0-4.583 1.746-9.152 5.238-12.645s8.061-5.238 12.63-5.238l859.234 0c4.598 0 9.167 1.746 12.659 5.238S960 18.282 960 22.865L960 577.148C960 581.718 958.254 586.287 954.762 589.779zM930.2 34.783 94.8 34.783 94.8 565.217l835.4 0L930.2 34.783zM541.8 428l312.9 0 0-29.8-312.9 0 0 29.8ZM541.8 329.801l208.601 0 0-29.801-208.601 0 0 29.801ZM281.021 267.29c15.366-8.905 33.146-14.086 52.179-14.086 19.032 0 36.813 5.181 52.15 14.086 51.568-20.561 88.294-70.514 89.284-129.095l22.35 0c-0.931 63.427-37.89 117.992-91.262 144.445 19.556 18.96 31.779 45.472 31.779 74.864 0 57.606-46.708 104.3-104.3 104.3-57.621 0-104.3-46.693-104.3-104.3 0-29.393 12.194-55.904 31.779-74.864-53.401-26.453-90.36-81.019-91.262-144.445l22.35 0C192.756 196.776 229.482 246.729 281.021 267.29zM251.25 357.505c0 45.194 36.755 81.95 81.95 81.95 45.166 0 81.95-36.756 81.95-81.95 0-26.701-12.921-50.39-32.739-65.362-10.418-7.857-22.699-13.271-36.115-15.438-4.278-0.684-8.644-1.149-13.096-1.149-4.482 0-8.818 0.466-13.096 1.149-13.416 2.168-25.726 7.581-36.145 15.438C264.142 307.115 251.25 330.804 251.25 357.505z"  horiz-adv-x="1024" />

    
    <glyph glyph-name="laba" unicode="&#58882;" d="M910.735865 62.227506c-25.498744 0-46.130643 20.661575-46.130643 46.128597L864.605222 661.9228c0 25.481348 20.6319 46.12962 46.130643 46.12962 25.465998 0 46.128597-20.647249 46.128597-46.12962l0-553.566698C956.864462 82.889081 936.201863 62.227506 910.735865 62.227506zM680.090834 123.732301c0-33.935903-27.539216-61.504796-61.506842-61.504796L341.807295 62.227506c-33.965579 0-61.504796 27.568892-61.504796 61.504796L280.302499 245.483226 157.562037 272.812665 157.562037 495.093191l677.343769 149.244093 0-522.316973-154.814971 34.446533L680.090834 123.732301zM649.33639 163.315832 311.054897 238.635261l0-114.90296c0-16.968463 13.784958-30.752398 30.752398-30.752398l276.775674 0c16.969487 0 30.753421 13.783934 30.753421 30.752398L649.33639 163.315832zM95.785042 246.74394c-16.96744 0-30.752398 13.784958-30.752398 30.767747L65.032644 492.781542c0 16.997116 13.784958 30.752398 30.752398 30.752398 16.968463 0 30.753421-13.755282 30.753421-30.752398l0-215.269855C126.538463 260.528897 112.753505 246.74394 95.785042 246.74394z"  horiz-adv-x="1024" />

    
    <glyph glyph-name="tiwen" unicode="&#58898;" d="M875.646307 48.578415c38.637069 42.318779 69.879127 91.611714 93.726176 147.907338 23.846029 56.295624 36.54095 116.932262 38.076609 181.918067 0.752035 68.761265-11.753348 133.336406-37.512073 193.790641-25.758725 60.449139-60.981066 113.334111-105.663966 158.660011C819.587095 776.176296 766.941592 812.091569 706.338582 838.533036 645.735571 864.976541 580.995349 878.573292 512.052698 879.323289c-68.936536 0.753054-133.679815-11.718702-194.282826-37.413229-60.60403-25.692489-113.81203-60.639695-159.62604-104.835505-45.846618-44.199886-82.004417-96.33588-108.513139-156.409001-26.516874-60.077198-40.144196-124.499486-40.898269-193.230181-0.752035-64.985805 10.404169-126.189017 33.533829-183.604541 23.088899-57.421638 55.305139-108.246157 96.57433-152.440947 41.271229-44.199886 89.747931-80.672561 145.429087-109.366057 55.688289-28.726104 115.698232-46.478409 180.091988-53.263027 16.669089-2.282599 34.470306-4.157592 53.396519-5.661661 18.926213-1.496937 39.951601-2.656579 63.046615-3.405557 23.095013-0.747959 48.853739-0.747959 77.277195 0 28.389829 0.748978 60.416531 3.032596 96.016927 6.7836 78.777189 7.562129 137.280004 17.378325 175.544113 29.475082 38.256975 12.095738 53.58198 18.876281 45.999471 20.407864-40.142158 6.787676-74.613483 17.7574-103.409899 32.886753-15.13241 8.313145-21.402425 20.222403-18.738713 35.695165C856.156577 20.445379 863.519998 34.979626 875.646307 48.578415zM292.159924 341.703904c-12.637855-12.386158-28.090237-18.589937-46.334727-18.589937-18.272003 0-33.870105 6.203779-46.883978 18.589937-12.987378 12.382082-19.494824 27.287252-19.494824 44.6829 0 17.399724 6.507446 32.137775 19.494824 44.188676 12.983302 12.052939 28.611974 18.087561 46.883978 18.087561 18.24449 0 33.696872-6.034622 46.334727-18.087561 12.663331-12.050901 18.964935-26.787933 18.964935-44.188676C311.124859 368.992175 304.791665 354.085986 292.159924 341.703904zM555.483226 341.177072c-13.332825-12.715301-29.13473-19.087217-47.405715-19.087217-18.967992 0-34.947206 6.371917-47.931528 19.087217-12.983302 12.715301-19.490748 27.785551-19.490748 45.210751 0 18.092656 6.507446 33.327987 19.490748 45.714146 12.983302 12.382082 28.962516 18.58688 47.931528 18.58688 18.270984 0 34.047414-6.204798 47.405715-18.58688 13.366453-12.386158 20.014523-27.622508 20.014523-45.714146C575.497749 368.992175 568.818089 353.921924 555.483226 341.177072zM817.243355 342.172652c-12.98534-12.715301-28.611974-19.086198-46.883978-19.086198-18.971049 0-34.946187 6.370898-47.930509 19.086198-12.98534 12.715301-19.493805 27.787589-19.493805 45.21177 0 17.426219 6.508465 32.306932 19.493805 44.686976 12.984321 12.38412 28.95844 18.587899 47.930509 18.587899 18.272003 0 33.869086-6.203779 46.883978-18.587899 12.983302-12.355588 19.490748-27.260757 19.490748-44.686976C836.734103 369.989793 830.226657 354.919543 817.243355 342.172652z"  horiz-adv-x="1024" />

    
    <glyph glyph-name="youjian" unicode="&#58922;" d="M934.317445 685.187667 88.829118 685.187667c-13.728676 0-24.867364-11.138688-24.867364-24.867364l0-547.07996c0-13.728676 11.138688-24.867364 24.867364-24.867364l845.487304 0c13.728676 0 24.867364 11.138688 24.867364 24.867364l0 547.07996C959.183785 674.048979 948.046121 685.187667 934.317445 685.187667zM501.033227 299.38895c3.059686-2.52552 6.79987-3.78828 10.539031-3.78828 3.740184 0 7.479345 1.26276 10.539031 3.78828l84.927251 69.938885 218.377636-231.220129L197.72834 138.107707l218.377636 231.220129L501.033227 299.38895zM511.573281 333.662545 145.096632 635.452939l732.953298 0L511.573281 333.662545zM113.696482 618.372935l276.766464-227.926106L152.143119 138.107707l-38.446637 0L113.696482 618.372935zM871.003444 138.107707 632.683617 390.447852l276.766464 227.926106 0-480.265228L871.003444 138.10873z"  horiz-adv-x="1024" />

    
    <glyph glyph-name="shenfenzheng" unicode="&#58993;" d="M984.160195 692.82083H57.988624a22.378321 22.378321 0 0 1-22.378321-22.378321v-569.048734a22.378321 22.378321 0 0 1 22.378321-22.378321h926.171571a22.378321 22.378321 0 0 1 22.378321 22.378321v569.048734a22.378321 22.378321 0 0 1-22.378321 22.378321z m-22.378321-569.048734H80.366945v524.292092h881.414929v-524.292092zM121.188199 186.853386a22.378321 22.378321 0 1 1 44.756642 0c0 80.117586 65.181655 145.296044 145.296044 145.296044s145.296044-65.181655 145.296045-145.296044a22.378321 22.378321 0 1 1 44.756642 0c0 77.569654-46.735525 144.391321-113.506041 173.898735 35.175524 24.354007 58.276345 64.97066 58.276345 110.900565 0 74.343979-60.482208 134.826187-134.826188 134.826188s-134.826187-60.482208-134.826187-134.826188c0-45.929905 23.100821-86.546558 58.276345-110.900565-66.764122-29.510612-113.499647-96.332278-113.499647-173.898735z m190.052686 374.868846c49.663888 0 90.069545-40.405657 90.069546-90.069546s-40.405657-90.069545-90.069546-90.069545-90.069545 40.405657-90.069545 90.069545 40.405657 90.069545 90.069545 90.069546zM579.656058 497.784172h319.6903a22.378321 22.378321 0 1 1 0 44.756642h-319.6903a22.378321 22.378321 0 1 1 0-44.756642zM579.656058 360.317343h319.6903a22.378321 22.378321 0 1 1 0 44.756642h-319.6903a22.378321 22.378321 0 1 1 0-44.756642zM579.656058 222.850514h319.6903a22.378321 22.378321 0 1 1 0 44.756642h-319.6903a22.378321 22.378321 0 1 1 0-44.756642z"  horiz-adv-x="1024" />

    
    <glyph glyph-name="bianji" unicode="&#58629;" d="M692.496 759.945c0 0 47.459 43.667 50.309 46.514 2.847 2.849 64.549 56.956 143.813-7.119 18.985-16.612 97.774-93.029 59.802-162.798-9.966-14.713-18.986-22.308-64.073-66.923-9.018 9.016-189.851 190.326-189.851 190.326zM615.129 684.005l189.853-190.328-428.83-431.677-38.446-34.173c0 0-14.24-15.664-54.82-31.325-40.581-15.664-99.672-37.733-169.443-53.396-19.934-2.847-55.532-9.257-51.26 36.309 4.272 45.563 33.462 123.877 49.837 174.426 20.647 47.701 36.309 61.939 65.499 92.552 29.191 30.618 437.61 437.613 437.61 437.613zM678.73 30.676h91.13v-89.597h-91.13v89.597zM493.15 30.676h91.127v-89.597h-91.127v89.597zM864.312 30.676h91.13v-89.597h-91.13v89.597z"  horiz-adv-x="1024" />

    
    <glyph glyph-name="kecheng" unicode="&#58910;" d="M534.8 65.3l-0.1 507.7c-4.4 109.7 46.6 154.5 138.9 171.2 71.1 12.8 143.9 16.4 226.6 25.1 0-211-0.3-599.7-0.3-599.7l0.3-50.1s-186.9 14.6-365.4-54.2zM552.3 29.7c128.1 20.8 257.5 41.7 399.1 64.7V674.1h30.5l0.1-604.7c-0.7-25-27.7-69.8-43.8-70.6l-361.4-0.1c-9.8 0.2-24.5 31-24.5 31zM491.9 65.3L492 573c4.4 109.7-46.7 154.5-138.9 171.2-71.1 12.8-143.8 16.4-226.6 25.2 0-211 0.3-599.7 0.3-599.7l-0.3-50.1c0-0.1 187 14.5 365.4-54.3zM471.3 29.7C343.2 50.5 215.6 71.3 74 94.4V674H42v-604.7c0.7-25 29.2-69.8 45.3-70.6l359.6-0.1c9.8 0.3 24.4 31.1 24.4 31.1z"  horiz-adv-x="1024" />

    
    <glyph glyph-name="shouji" unicode="&#58916;" d="M790.862893 849.630189H278.218868c-25.761006 0-46.369811-20.608805-46.369811-46.369812v-837.232704c0-25.761006 20.608805-46.369811 46.369811-46.369811h511.355975c25.761006 0 46.369811 20.608805 46.369811 46.369811v837.232704c1.28805 25.761006-19.320755 46.369811-45.081761 46.369812zM430.208805 792.955975h208.664151c5.152201 0 9.016352-3.864151 9.016352-9.016352 0-5.152201-3.864151-9.016352-9.016352-9.016353H430.208805c-5.152201 0-9.016352 3.864151-9.016352 9.016353 0 5.152201 3.864151 9.016352 9.016352 9.016352z m112.060377-837.232705c-25.761006 0-46.369811 20.608805-46.369811 46.369812s21.896855 46.369811 47.657862 46.369811 46.369811-21.896855 46.369811-47.657862c0-24.472956-21.896855-45.081761-47.657862-45.081761zM798.591195 85.816352H269.202516V719.537107H798.591195v-633.720755z"  horiz-adv-x="1094" />

    
    <glyph glyph-name="duihao" unicode="&#58958;" d="M410.624 77.824c-17.408 0-35.328 6.656-48.64 19.968L87.04 373.76c-26.624 27.136-26.624 70.656 0 97.792 27.136 27.136 70.656 27.136 97.28 0l226.304-227.328 432.64 434.176c26.624 27.136 70.144 27.136 97.28 0 26.624-27.136 26.624-70.656 0-97.792l-481.28-483.328c-13.824-12.8-31.232-19.456-48.64-19.456z"  horiz-adv-x="1024" />

    
    <glyph glyph-name="tiwen1" unicode="&#58996;" d="M882.176 166.4c96.768 164.864 74.752 380.416-66.56 522.24-167.936 167.936-440.832 167.936-608.768 0-167.936-167.936-167.936-440.832 0-608.768 141.824-141.824 357.376-163.84 522.24-66.56l158.72-42.496c10.752-3.072 22.016 0.512 29.184 8.192 7.68 7.68 10.752 18.432 8.192 29.184l-43.008 158.208z m-371.712-34.304c-16.896 0-30.208 13.824-30.208 30.208 0 10.752 5.632 20.992 15.36 26.112 9.216 5.632 20.992 5.632 30.208 0 9.216-5.632 15.36-15.36 15.36-26.112-0.512-16.384-13.824-30.208-30.72-30.208z m30.208 199.68v-90.112c0-16.896-13.824-30.208-30.208-30.208-16.896 0-30.208 13.824-30.208 30.208v117.76c0 15.872 12.288 28.672 27.648 30.208v0.512h2.56c50.688 0 92.672 41.472 92.672 92.672 0 50.688-41.472 92.672-92.672 92.672-47.104 0-86.016-36.352-91.648-81.92v-2.048c0-16.896-13.824-30.208-30.208-30.208-16.896 0-30.208 13.824-30.208 30.208v1.024c0 1.024 0 2.048 0.512 3.072C366.08 573.44 431.104 634.88 510.976 634.88c84.48 0 153.6-68.608 153.088-153.6-0.512-73.728-53.248-135.68-123.392-149.504z"  horiz-adv-x="1024" />

    
    <glyph glyph-name="zizhirenzheng-" unicode="&#59286;" d="M685.756688 495.20764c0-14.975715-12.57576-27.103483-28.159463-27.103483H186.822199c-15.551704 0-28.159463 12.127769-28.159464 27.103483 0 14.943715 12.60776 27.103483 28.159464 27.103483H657.597225c15.551704 0 28.159463-12.159768 28.159463-27.103483z m-259.70705 171.612729c0-14.975715-12.60776-27.103483-28.159463-27.103484H186.790199c-15.551704 0-28.159463 12.127769-28.159463 27.103484 0 14.943715 12.60776 27.071484 28.159463 27.071484h211.099976c15.551704 0 28.159463-12.127769 28.159463-27.071484z m259.70705-343.225458c0-14.975715-12.57576-27.103483-28.159463-27.103483H186.822199c-15.551704 0-28.159463 12.159768-28.159464 27.103483 0 14.943715 12.60776 27.103483 28.159464 27.103484H657.597225c15.551704 0 28.159463-12.159768 28.159463-27.103484z m329.97771-200.124185l-33.855355 32.575379v46.111121c0 14.975715-12.60776 27.103483-28.159463 27.103484h-47.871088l-33.855354 32.575379a28.927449 28.927449 0 0 1-39.807242 0l-33.855354-32.575379h-47.871088c-15.551704 0-28.159463-12.159768-28.159463-27.103484v-46.079121l-33.855354-32.639378a26.399497 26.399497 0 0 1 0-38.30327l33.855354-32.575379V6.416958c0-14.975715 12.60776-27.103483 28.159463-27.103484h47.871088l33.855354-32.575379c11.00779-10.591798 28.799451-10.591798 39.807242 0l33.855354 32.575379h47.903087c15.519704 0 28.159463 12.159768 28.159463 27.103484v46.079121l33.823356 32.639378a26.399497 26.399497 0 0 1 0 38.30327z m-163.644881-76.382544c-32.799375 0-59.422867 25.599512-59.422867 57.21491 0 31.583398 26.623492 57.214909 59.422867 57.214909 32.831374 0 59.422867-25.599512 59.422867-57.214909 0-31.583398-26.591493-57.214909-59.422867-57.21491zM856.12144 896H56.328686C25.225279 896 0.00976 871.744462 0.00976 841.793033v-853.519729c0-29.91943 25.215519-54.206967 56.318926-54.206967l569.141151 0.159997c0.959982-0.095998 1.983962-0.159997 3.007943-0.159997h21.887582c15.551704 0 28.159463 12.159768 28.159464 27.103483 0 14.975715-12.60776 27.103483-28.159464 27.103484h-21.887582a29.695434 29.695434 0 0 1-3.007943-0.159997v0.159997H56.296687V841.793033h799.824753v-521.590057c0-14.975715 12.60776-27.103483 28.159463-27.103483s28.159463 12.159768 28.159464 27.103483v521.590057c0 29.951429-25.215519 54.206967-56.318927 54.206967zM927.99207 1.07306c0 14.399726-12.639759 26.079503-28.223462 26.079502h-103.550026c-15.583703 0-28.223462-11.647778-28.223462-26.079502v-104.318012c0-14.399726 12.639759-26.047503 28.223462-24.63953l50.719033 44.927143 52.798994-44.895144c15.615702-1.439973 28.255461 10.239805 28.255461 24.63953v104.318012z"  horiz-adv-x="1024" />

    
    <glyph glyph-name="xuesheng" unicode="&#58911;" d="M928 332.8a32 32 0 0 0-32 32v160a32 32 0 0 0 64 0v-160a32 32 0 0 0-32-32zM515.584 371.2c-20.8 0-38.848 2.816-56.896 8.96L49.28 536.128C6.336 553.664 0 580.672 0 595.2c0 14.592 6.336 41.6 48.576 58.816L453.952 809.792c31.232 12.096 84.736 12.16 116.16 0l404.672-155.52c42.88-17.408 49.216-44.48 49.216-59.072 0-14.592-6.336-41.536-48.64-58.816L570.048 380.608c-13.312-6.08-31.68-9.408-54.464-9.408zM73.92 595.2l406.464-154.752c10.432-3.584 21.248-5.248 35.2-5.248 16.512 0 25.344 2.432 29.76 4.416L950.016 595.2 547.072 750.016c-16.768 6.528-53.504 6.464-70.08 0L73.92 595.2zM515.584 251.84c-20.736 0-38.784 2.88-56.896 9.024L180.16 366.848l22.72 59.84 277.44-105.664c10.496-3.52 21.312-5.248 35.2-5.248 16.448 0 25.28 2.432 29.76 4.48l275.136 105.792 22.976-59.776-273.344-105.024c-13.376-6.144-31.744-9.408-54.464-9.408zM515.456-51.2c-164.8 0-346.304 50.368-355.328 161.024L160 396.8a32 32 0 0 0 64 0v-281.024C228.416 59.648 361.92 12.8 515.456 12.8c120.768 0 232.32 28.352 271.296 68.928 9.344 9.664 13.632 19.328 13.184 29.376V394.496a32 32 0 0 0 64 0v-278.72c1.152-29.632-9.6-56-30.976-78.336-62.784-65.344-205.12-88.64-317.504-88.64zM896 268.8a32 32 0 1 1 64 0 32 32 0 1 1-64 0z"  horiz-adv-x="1024" />

    
    <glyph glyph-name="mimaguanli" unicode="&#58921;" d="M687.077053 750.430316l0.215579-0.053895 54.137263-31.258947 1.239579-94.073263a163.624421 163.624421 0 0 1 21.962105-79.656422l14.578526-25.249684a168.151579 168.151579 0 0 1 62.490948-61.817263l74.428631-42.118737 0.080842-63.622737-77.123368-46.457263a166.965895 166.965895 0 0 1-58.718316-59.850105l-15.306105-26.624a164.890947 164.890947 0 0 1-21.773474-79.683368l-1.024-90.058106-55.161263-31.824842L613.402947 60.631579a171.654737 171.654737 0 0 1-85.665684 22.905263h-26.192842c-29.318737 0-58.233263-7.545263-83.429053-21.692631l-80.060631-44.247579-54.352842 31.312842 1.670737 87.093894a164.594526 164.594526 0 0 1-22.016 85.09979l-13.797053 23.821474a168.690526 168.690526 0 0 1-61.386105 61.089684l-80.249263 46.214737L107.789474 414.800842l77.419789 42.361263a167.289263 167.289263 0 0 1 64.754526 63.299369l12.988632 22.608842c14.928842 26.085053 22.447158 55.511579 21.719579 84.911158l-1.967158 91.109052 54.191158 31.124211L414.989474 704.377263c26.138947-15.386947 56.158316-23.525053 86.824421-23.525052h23.147789a170.253474 170.253474 0 0 1 89.357474 25.168842l72.488421 44.355368 0.269474 0.053895m0 67.368421c-12.288 0-24.549053-3.341474-35.462737-10.024421l-72.407579-44.301474a103.154526 103.154526 0 0 0-54.218105-15.25221h-23.14779c-18.512842 0-36.729263 4.850526-52.62821 14.201263l-78.201264 45.891368a67.907368 67.907368 0 0 1-68.419368 0.215579L248.185263 776.946526a65.401263 65.401263 0 0 1-32.848842-57.882947L217.357474 626.526316a95.744 95.744 0 0 0-12.853895-49.987369l-12.934737-22.528a99.813053 99.813053 0 0 0-38.723368-37.78021l-78.093474-42.738526A65.293474 65.293474 0 0 1 40.421053 416.148211l0.107789-65.374316c0-23.147789 12.746105-44.840421 33.037474-56.508632l80.949895-46.618947a101.106526 101.106526 0 0 0 36.729263-36.513684l13.797052-23.794527a96.741053 96.741053 0 0 0 12.934737-50.095158l-1.697684-88.306526a65.266526 65.266526 0 0 1 32.929684-57.882947l55.161263-31.797895a68.554105 68.554105 0 0 1 67.072-0.538947l79.46779 44.301473a103.531789 103.531789 0 0 0 50.634105 13.150316h26.192842c18.324211 0 36.325053-4.850526 52.008421-13.904842l73.674105-42.522947a68.176842 68.176842 0 0 1 67.880422 0.080842l55.457684 32.202105a65.670737 65.670737 0 0 1 32.848842 55.781053l1.050947 91.351579a97.253053 97.253053 0 0 0 12.826948 46.942315l15.25221 26.516211c8.326737 14.632421 20.533895 26.947368 35.166316 35.786105l77.770105 46.834526a65.697684 65.697684 0 0 1 31.878737 55.996632l-0.107789 66.317474c0 23.363368-12.853895 45.163789-33.468632 56.832l-75.156211 42.522947a100.702316 100.702316 0 0 0-37.349052 36.944842l-14.524632 25.168842a96.040421 96.040421 0 0 0-12.934737 46.834527l-1.266526 95.528421a65.643789 65.643789 0 0 1-32.929684 55.673263l-54.837895 31.690105a68.015158 68.015158 0 0 1-33.899789 9.054316zM574.086737 257.482105a140.153263 140.153263 0 0 0-62.086737-14.928842 141.473684 141.473684 0 1 0 0 282.947369 141.473684 141.473684 0 0 0 141.473684-141.473685c0-33.711158-12.288-64.242526-31.959579-88.549052l52.304842-41.148632a206.578526 206.578526 0 0 1 45.67579 129.697684 207.494737 207.494737 0 0 1-207.494737 207.494737 207.494737 207.494737 0 0 1-207.494737-207.494737 207.494737 207.494737 0 0 1 207.494737-207.494736 206.336 206.336 0 0 1 92.429474 21.935157l-30.342737 59.014737z"  horiz-adv-x="1024" />

    
    <glyph glyph-name="xiala" unicode="&#58932;" d="M993.28 634.0608a26.624 26.624 0 0 1-37.6832 0L512 190.464 68.4032 634.0608A26.624 26.624 0 0 1 30.72 596.3776l462.4384-462.4384a26.624 26.624 0 0 1 37.6832 0L993.28 596.3776a26.624 26.624 0 0 1 0 37.6832z"  horiz-adv-x="1024" />

    
    <glyph glyph-name="arr_under" unicode="&#58652;" d="M271.53514739-111.35040928000001l499.89751814 499.8975181-498.38273575 498.38273573z"  horiz-adv-x="1024" />

    
    <glyph glyph-name="HR" unicode="&#61194;" d="M640.256 176.256c0-15.872 12.8-28.672 28.672-28.672h260.224c15.872 0 28.672 12.8 28.672 28.672s-12.8 28.672-28.672 28.672H668.928c-15.872 0.128-28.672-12.928-28.672-28.672zM929.152 88.192H668.928c-15.872 0-28.672-12.8-28.672-28.672s12.8-28.672 28.672-28.672h260.224c15.872 0 28.672 12.8 28.672 28.672 0 15.616-12.8 28.672-28.672 28.672zM929.152-28.8H668.928c-15.872 0-28.672-12.8-28.672-28.672s12.8-28.672 28.672-28.672h260.224c15.872 0 28.672 12.8 28.672 28.672s-12.8 28.672-28.672 28.672zM129.024-16.128c-4.48 9.984-5.76 27.776-5.376 36.608v0.512c3.968 199.04 170.624 360.96 371.456 360.96 106.24 0 203.008-45.312 271.104-117.632h75.52c-13.824 18.688-29.184 36.608-46.208 53.12-49.152 48-108.16 82.688-172.16 102.656 64.768 42.112 107.776 115.072 107.776 198.016 0 130.176-105.856 236.032-236.032 236.032S259.072 748.288 259.072 618.112c0-82.944 43.008-155.904 107.776-198.016-64.128-19.84-123.008-54.528-172.16-102.4C114.176 239.232 68.48 134.4 66.176 22.528c-0.128-4.992-0.768-37.376 10.496-62.336 16.64-36.736 57.984-46.08 79.488-45.696l424.448-0.384v57.344l-424.832 0.384c-0.128 0-21.76 0.896-26.752 12.032z m187.392 634.24c0 98.56 80.128 178.688 178.688 178.688s178.688-80.128 178.688-178.688-80.128-178.688-178.688-178.688-178.688 80.128-178.688 178.688z"  horiz-adv-x="1024" />

    
    <glyph glyph-name="nvtouxiang" unicode="&#58663;" d="M88.167576 384.221376c0-281.69078 228.35665-510.047431 510.047431-510.04743S1108.262438 102.530596 1108.262438 384.221376 879.905787 894.268807 598.215007 894.268807 88.167576 665.912156 88.167576 384.221376z m0 0M598.215007-126.466293c-68.937166 0-135.821426 13.500759-198.779843 40.132785-60.813139 25.719448-115.429339 62.54274-162.33082 109.444221-46.901481 46.901481-83.724773 101.517681-109.444221 162.33082-26.632027 62.958417-40.132786 129.842678-40.132785 198.786214 0 68.937166 13.500759 135.821426 40.132785 198.781436 25.719448 60.811547 62.54274 115.427747 109.444221 162.329227C284.005825 792.241483 338.622025 829.064775 399.435164 854.78263c62.958417 26.63362 129.842678 40.132786 198.779843 40.132786 68.943536 0 135.827796-13.499166 198.787806-40.132786 60.811547-25.717855 115.427747-62.541147 162.329228-109.44422 46.903073-46.901481 83.726366-101.517681 109.44422-162.329227 26.63362-62.96001 40.132786-129.84427 40.132786-198.781436 0-68.943536-13.499166-135.827796-40.132786-198.786214-25.717855-60.813139-62.541147-115.429339-109.44422-162.33082-46.901481-46.901481-101.517681-83.724773-162.329228-109.444221-62.96001-26.632027-129.84427-40.132786-198.787806-40.132785z m0 1020.094861c-280.881722 0-509.399229-228.519099-509.399228-509.400821 0-280.888093 228.511136-509.41197 509.399228-509.41197s509.407192 228.517507 509.407192 509.399229c0 280.889685-228.506358 509.407192-509.407192 509.407191v0.006371z m0 0M377.23066 431.167451c12.319025-123.210949-0.665721-361.04218 94.960806-425.389375 145.627274-98.002737 106.053503-105.101107 242.615503-4.534229 136.519 100.546174 118.689461 264.724449 117.861292 444.891179l-455.437601-14.967575z m0 0M722.223866 681.795496c286.23775 56.619734 102.245514-591.246286 70.9837-727.161677-13.562872-58.983203-33.402314-43.953515-85.068956 41.712678 0 0 99.252955 243.58064 106.071022 381.741645 6.824437 138.154635-41.868757 185.709095-71.587309 237.874232C712.910142 668.12751 722.223866 681.795496 722.223866 681.795496z m0 0M752.141497 674.939206c8.902824-78.313002-11.938385-87.836954-75.04651-129.624487-63.108125-41.789125-90.394724-41.789125-80.160458-36.675177 10.226303 5.120319 58.839866 89.549036 58.839866 89.549036s-65.665895-52.880229-132.182257-79.314769c-66.517954-26.432948-90.388354-16.200274-90.388354-16.200274s58.833495 76.752221 51.156999 70.779843c-7.670126-5.966007-63.953814-42.634814-71.625532-59.693517-7.670126-17.058703-24.063108-93.728108-14.687271-178.150455 6.282941-56.55125 120.051163-233.445116 122.046733-316.574244 0.995396-41.943611-60.743063-103.6757-78.927759-82.703894C367.400922 21.412965 354.648701 532.162747 358.138162 556.401045c8.958567 62.130248 44.002887 107.372204 83.196019 138.595795 83.86811 66.834889 301.144805 64.968322 310.807316-20.057634z m0 0M514.788057 53.047456c1.138733 8.988827 7.838945 69.528033 7.838945 69.528032l160.414881 1.076621-2.177131-49.831927-166.076695-20.772726z m0 0M447.886277 388.57086c8.64004-38.839567-8.536519-71.18915-37.949284-78.163295-29.407988-6.950255-59.892597 14.083663-68.527859 52.935971-8.648003 38.845938 8.181361 75.992535 37.59572 82.953938 29.406395 6.980515 60.239791-18.863158 68.881423-57.726614z m317.972577 0c-8.641632-38.839567 8.534926-71.18915 37.949285-78.163295 29.414359-6.950255 59.897375 14.083663 68.532636 52.935971 8.641632 38.845938-8.186139 75.992535-37.594127 82.953938-29.407988 6.980515-60.246162-18.863158-68.887794-57.726614z m0 0M675.738063 98.343561c-19.111609 10.619684-22.515068 6.376907-22.476845 26.826328v32.922932h-104.27453v-32.922932c0.038223-20.455792-3.377977-16.206644-22.476845-26.826328 0 0-18.428369-15.117283-24.039218-16.915366 19.833072-63.859848 34.988578-143.349807 67.363643-207.123654 9.418838-0.509643 18.880677-0.777205 28.38711-0.777205 11.522707 0 22.98171 0.385417 34.372228 1.138733 32.25084 63.711733 47.380864 143.020132 67.183676 206.762126-5.612442 1.804454-24.039219 16.915366-24.039219 16.915366z m0 0M606.85664 731.167152l-0.665722-0.03026-30.658205 1.224735 0.068483-2.438322-3.221899-0.130596C510.147121 727.316163 451.555706 693.795994 413.980691 642.745701c-37.608461-51.096479-42.609332-115.461192-39.642255-177.088167 7.627125-158.360383 96.328879-336.176384 232.518204-337.488715 136.195695 1.31233 224.897449 179.121961 232.524573 337.488715 2.960707 61.626975-2.033794 125.991688-39.642254 177.088167-37.575016 51.050292-96.16643 84.570462-158.398607 87.047008l-3.221898 0.130596 0.068483 2.438322-30.658206-1.224735-0.672091 0.03026z m0 0M703.677642 669.81411c-1.866567-8.710116-0.20545-55.332885 53.447207-126.783228 53.644693-71.456713 57.782357-77.683912 57.782357-77.683912 15.273361 26.514172 9.611547 39.274356 24.74794 5.985119 0 0 13.792211 59.884634 0.117855 115.819535-13.674356 55.928531-30.925768 77.019784-54.628941 86.444992-23.70158 9.429986-81.472788-3.788876-81.472788-3.788877l0.00637 0.006371zM404.722709 518.792584c-9.324872-10.562349-44.948911 38.747194-38.409556-21.487819 6.526614-60.239791 19.079756-130.76322 36.990519-177.304765-8.671892 58.26811-24.305189 126.297474 1.419037 198.798955v-0.006371z m0 0M828.575191 459.747269c2.438323 40.83036 9.71666 139.661267-0.547866 165.098818-29.607067 73.385393-83.83785 103.099166-174.866443 112.199477-27.963469 2.78711 14.427672-44.319821 14.427672-44.319821 75.350703-106.717631 38.079881-188.440463 160.986637-232.978474z m0 0M727.125994 647.615976C517.251862 616.995994 545.713825 436.703447 378.793034 463.056762c-9.637029 1.524151-20.984546 52.079134-20.984547 52.079134s18.103471 83.731143 50.801842 131.795247c32.706333 48.065696 69.105985 60.496205 105.648973 75.508374 36.557322 15.010576 133.90708 26.141496 150.47366 4.95787l62.393032-79.781411z m0 0M560.340576 52.910489l26.297574-9.88548-5.854523-65.360109-34.733756 41.532711 14.290705 33.712878z m0 0M498.358444 97.752694l24.268558 24.822794 64.011148-79.550479-61.217668-53.794401-27.062038 108.522086z m0 0M645.328308 53.99348l-26.291203-9.898221 4.199776-63.506283 36.382133 39.691626-14.290706 33.712878z m0 0M707.335923 98.835685l-24.262188 24.816424-64.011148-79.55685 61.217668-53.789623 27.055668 108.530049z m0 0M510.632874 358.732861c9.928481 0 18.022247 8.088988 18.022248 18.017469 0 9.928481-8.093766 18.022247-18.022248 18.022247s-18.028618-8.093766-18.028617-18.022247c0-9.928481 8.100137-18.017469 18.028617-18.017469z m203.234441 0c9.930073 0 18.02384 8.088988 18.02384 18.017469 0 9.928481-8.093766 18.028618-18.02384 18.028617-9.928481 0-18.015877-8.100137-18.015876-18.028617s8.087396-18.017469 18.015876-18.017469z m0 0M676.497749 253.370561c-11.006694-61.907279-110.794774-61.907279-121.799875 0 33.072639-44.152594 88.720866-44.152594 121.799875 0z m0 0M574.892474 285.447804c-0.21182 0.062113-0.250044 0.24208-0.062113 0.547866 0 0.901431 0.509643 1.785343 1.468409 2.61829 7.402563 14.246112 21.960831 55.810676 28.63556 101.543163 7.316561-0.466642-7.248078-77.827249-13.518278-96.285878 6.332313 1.10051 14.066144 1.75349 22.408362 1.753491 21.53719 0 38.994053-4.322409 38.994052-9.629066 0-5.325768-17.456862-9.637029-38.994052-9.637029-20.798208 0-37.788429 4.018216-38.93194 9.089163z m0 0M660.111137 422.923977c-10.677019-4.422745 7.060147 24.50586 59.548588 25.644593 61.173075 1.33622 79.787782-28.089287 55.68008-19.633992-51.996317 18.227697-98.302153 1.006545-115.228668-6.010601z m-95.720492 0c10.675426-4.422745-7.072888 24.50586-59.550181 25.644593-61.179445 1.331442-79.786189-28.089287-55.68645-19.640363 52.00428 18.227697 98.308523 1.012915 115.236631-6.00423z m0 0M808.007915 516.324001c9.324872-10.570312 44.942541 38.745602 38.409556-21.494189-6.526614-60.241384-19.074978-130.764813-36.992112-177.299987 8.673485 58.261739 24.306781 126.297474-1.417444 198.794176z m0 0M815.273511 65.60219s-107.888217-81.49827-112.865198-85.218664l40.034043-86.239542a509.711385 509.711385 0 0 1 128.200671 57.989399c-10.0973 53.608063-26.901182 104.080229-55.369516 113.468807z m-425.438745 0c-29.314023-9.675252-46.259649-62.915416-56.251836-118.291303a510.295882 510.295882 0 0 1 65.852234-33.650765 507.970636 507.970636 0 0 1 62.224213-21.686898l41.04218 88.403932c-4.972204 3.726764-112.866791 85.225034-112.866791 85.225034z m0 0M794.961057 71.369118c-16.236904-82.786711-107.943959-187.812965-195.986363-187.875078-88.17937-0.049372-172.708424 104.9514-188.833844 187.875078-12.647107-2.936817-22.003832-5.711186-25.002762-8.318328 34.496454-65.503447 16.772029-107.023417 4.790643-145.227523 3.159786-1.419037 6.333906-2.806221 9.519174-4.163145 62.964788-26.625656 129.842678-40.132786 198.786214-40.132786s135.821426 13.50713 198.786213 40.132786a514.041757 514.041757 0 0 1 17.058704 7.627124c-11.906532 37.259674-27.571681 78.233371 5.892746 141.763544-3.0053 2.607142-12.362026 5.381511-25.010725 8.318328z m0 0M636.251887 24.827572v-0.012741l-36.200573-123.0485-31.237924 123.0485 0.012741 0.012741c-45.899714 16.846883-51.636382 66.032201-42.34177 73.242056-27.789872-12.659848-130.011497-25.1891-141.365385-35.018838 7.055369-15.427846 17.413861-83.570287 27.299341-154.665472 59.145651-23.131417 121.575314-34.851611 185.803061-34.851611 67.543611 0 133.10917 12.965634 194.947965 38.533781 9.730994 69.752594 19.852184 135.823019 26.783327 150.976932-11.347518 9.836108-113.569143 22.36536-141.359014 35.025208 9.281871-7.209854 3.540426-56.395172-42.34814-73.242056h0.006371z m0 0"  horiz-adv-x="1457" />

    
    <glyph glyph-name="jiahao" unicode="&#58941;" d="M103 344.5c-22.091 0-40 17.909-40 40s17.909 40 40 40h818.602c22.091 0 40-17.909 40-40s-17.909-40-40-40H103zM472.3 792.8c0 22.092 17.91 40 40 40 22.092 0 40-17.908 40-40v-818.6c0-22.092-17.908-40-40-40-22.09 0-40 17.908-40 40V792.8z"  horiz-adv-x="1024" />

    
    <glyph glyph-name="wodedangxuan" unicode="&#58627;" d="M907.264-70.65599999999995H114.688c-16.384 0-32.768 8.192-43.008 20.48-10.24 14.336-14.336 30.72-10.24 47.104 40.96 208.896 210.944 364.544 415.744 380.928 68.608 0 142.848-8.704 217.088-38.912 21.504-8.704 28.672-14.336 40.96-20.48 118.784-67.584 200.704-184.32 227.328-321.536 4.096-16.384 0-32.768-12.288-47.104-10.24-12.288-26.624-20.48-43.008-20.48zM115.712-37.375999999999976c-6.656 0-12.8 2.56-16.384 7.168-0.512 0.512-0.512 1.024-1.024 1.536-5.12 5.12-5.632 13.824-4.608 18.944 37.888 194.56 197.12 340.48 387.584 354.304h15.36c91.648 0 179.712-28.672 222.72-55.808C832 221.18399999999997 907.264 115.20000000000005 930.816-9.727999999999952c1.024-7.168-0.512-13.824-5.632-20.48-3.584-4.608-9.728-7.168-16.384-7.168H115.712zM496.64 332.288c89.088 0 174.592-27.648 216.064-53.76h0.512c109.568-65.024 182.272-167.936 204.8-289.792 0.512-2.56 0.512-6.144-3.584-10.752-0.512-1.024-3.072-2.048-6.144-2.048H115.712c-3.072 0-5.632 1.024-6.144 2.048-0.512 1.024-1.536 2.048-2.56 2.56-1.024 1.024-2.048 4.096-1.024 7.68 36.864 188.928 190.976 330.24 375.808 344.064 4.608-0.512 9.728 0 14.848 0m0 25.6c-5.12 0-10.752 0-15.872-0.512C284.16 343.03999999999996 120.32 193.53599999999994 81.408-7.168000000000006c-2.048-10.24 0-22.528 8.192-30.72 6.144-8.192 16.384-12.288 26.624-12.288H908.8c10.24 0 20.48 4.096 26.624 12.288 6.144 8.192 10.24 18.432 8.192 30.72-24.576 131.072-102.4 238.592-217.088 307.2-43.52 27.136-132.608 57.856-229.888 57.856zM512 359.424c-129.024 0-235.52 106.496-235.52 235.52S382.976 830.4639999999999 512 830.4639999999999s235.52-106.496 235.52-235.52S641.024 359.424 512 359.424zM512 392.704c-111.616 0-202.24 90.624-202.24 202.24S400.384 797.184 512 797.184s202.24-90.624 202.24-202.24-90.624-202.24-202.24-202.24zM512 784.384c104.448 0 189.44-84.992 189.44-189.44S616.448 405.504 512 405.504s-189.44 84.992-189.44 189.44 84.992 189.44 189.44 189.44m0 25.6c-118.784 0-215.04-96.256-215.04-215.04s96.256-215.04 215.04-215.04 215.04 96.256 215.04 215.04S630.784 809.984 512 809.984z"  horiz-adv-x="1024" />

    
    <glyph glyph-name="renzheng" unicode="&#59301;" d="M907.906307 713.859741c13.758968-6.495513 22.526311-20.350474 22.526311-35.581332v-271.019673c0-150.13274-66.842987-284.26668-186.162038-377.891659l-201.520886-142.837287a78.810089 78.810089 0 0 0-91.06517 0l-203.024773 143.989201C130.876584 122.992056 64.033597 257.125996 64.033597 407.258736v271.019673c0 15.230858 8.767342 29.053821 22.494313 35.581332L453.220408 887.7347l4.255681 1.72787a123.670725 123.670725 0 0 0 79.354049 0l4.255681-1.72787 366.820488-173.874959zM424.166588 234.343704c15.19886-16.958728 41.59688-17.59868 57.531685-1.247906l272.779541 279.019073-70.39472 68.794841-228.590856-233.806465-121.142914 135.445842-73.402495-65.595081 163.219759-182.610304z"  horiz-adv-x="1024" />

    
    <glyph glyph-name="dayu" unicode="&#58887;" d="M612.219 380.703L230.02 1.915a33.516 33.516 0 0 1-0.138-47.493l11.868-11.914a33.792 33.792 0 0 1 47.647-0.144l418.068 414.31a33.577 33.577 0 0 1 0.144 47.514L291.999 820.972c-13.123 13.143-34.473 13.21-47.647 0.138l-11.94-11.843a33.546 33.546 0 0 1-0.143-47.519l379.95-381.045z"  horiz-adv-x="1024" />

    


  </font>
</defs>
</svg>
